<svg id="Capa_1" data-name="Capa 1" xmlns="http://www.w3.org/2000/svg" viewBox="0 0 1367.82 516.33"><defs><style>.cls-1{fill:#fff;}</style></defs><title>sigmaLogoNavidad</title><g id="Capa_1-2" data-name="Capa 1-2"><path class="cls-1" d="M471.66,152V93.09H242.86c-2.25.41-4.45.82-6.66,1.33a160.44,160.44,0,0,0-30.71,10A166.31,166.31,0,0,0,106,266.53C110.82,352,181.43,420.6,267,423.17A166.44,166.44,0,0,0,422.22,185.23H365.35A108.19,108.19,0,0,1,387,257.31c-3.36,54.51-47.94,98.78-102.48,101.78A108.81,108.81,0,0,1,169.83,256.5c-.11-2-.17-4-.17-6,0-1.84,0-3.66.14-5.48,2.63-52.92,48-93.71,101.07-93.57Z"/><path class="cls-1" d="M555.55,216.48a29.12,29.12,0,0,0,4.94,17,48.63,48.63,0,0,0,12.63,12.39q7.71,5.3,16.36,10.59,8.89,5,17.2,10.82A52.76,52.76,0,0,1,620.39,281q5.43,7.94,5.41,19.48a38.4,38.4,0,0,1-5.8,20.77,40.77,40.77,0,0,1-16.69,14.84q-10.95,5.52-27.07,5.53a78,78,0,0,1-11.42-.84A64.83,64.83,0,0,1,553.51,338a78.41,78.41,0,0,1-11.19-4.81,3.4,3.4,0,0,1-1.56-1.8,16.49,16.49,0,0,1-.6-2.77L537,295.87q-.24-1.2,1.08-1.32c.88-.08,1.4.2,1.57.84a92.64,92.64,0,0,0,4.84,14.7,56.51,56.51,0,0,0,8.18,13.71,39.63,39.63,0,0,0,12.27,10.1,35.31,35.31,0,0,0,16.84,3.85,36.35,36.35,0,0,0,13.59-2.66,23.86,23.86,0,0,0,10.83-8.66q4.2-6,4.21-16.36,0-11.79-5.18-19.61a52.62,52.62,0,0,0-13.11-13.59,175.48,175.48,0,0,0-16.84-10.78q-8.4-5.31-16.24-10.83a48.43,48.43,0,0,1-12.75-13.17q-4.93-7.58-4.93-18.88,0-12.75,6.5-21a39.22,39.22,0,0,1,16.84-12.43,57.51,57.51,0,0,1,21.41-4.09A77.72,77.72,0,0,1,600.06,187a61.89,61.89,0,0,1,14.19,4.45,5.94,5.94,0,0,1,2.77,1.81,3.64,3.64,0,0,1,.84,2.28L619.55,223c0,.64-.4,1-1.21,1.08a1.55,1.55,0,0,1-1.68-.84A43.42,43.42,0,0,0,614,212.51a41.38,41.38,0,0,0-6.25-11.18,32.06,32.06,0,0,0-10.35-8.67,31.58,31.58,0,0,0-15.15-3.36q-9.39,0-15.28,4a23.78,23.78,0,0,0-8.66,10.1A31.67,31.67,0,0,0,555.55,216.48Z"/><path class="cls-1" d="M686.67,319.21q0,7,1.44,10.58c1,2.38,2.93,4,5.9,4.81s7.33,1.21,13.11,1.21q.72,0,.72,1.44t-.72,1.44c-3.85,0-8.15-.07-12.87-.24s-10-.24-15.76-.24c-5.46,0-10.59.09-15.4.24s-9.14.24-13,.24q-.72,0-.72-1.44t.72-1.44a54.9,54.9,0,0,0,13.23-1.21q4.5-1.2,6-4.81c1-2.41,1.44-5.93,1.44-10.58V207.82q0-7-1.44-10.46c-1-2.33-3-3.93-6-4.82s-7.46-1.32-13.23-1.32q-.72,0-.72-1.44c0-1,.24-1.45.72-1.45q5.77,0,13,.36t15.4.37q8.65,0,15.88-.37t12.75-.36c.48,0,.72.48.72,1.45s-.24,1.44-.72,1.44q-8.67,0-13.11,1.44a8.83,8.83,0,0,0-5.9,5.06q-1.44,3.6-1.44,10.58Z"/><path class="cls-1" d="M816.09,341.58q-26.94,0-46.19-10.22t-29.35-27.55a75.13,75.13,0,0,1-10.1-38.49,73.48,73.48,0,0,1,26.1-57.5,89.21,89.21,0,0,1,29.11-16.36,110.74,110.74,0,0,1,36.45-5.77,112.56,112.56,0,0,1,22.13,2.16q10.83,2.16,17.8,6.5c1.45,1,2.25,1.77,2.41,2.4a27.5,27.5,0,0,1,.48,3.13l2.89,27q0,.48-1.32.84c-.89.24-1.41,0-1.57-.6q-5.28-17.56-19-26.83T811.76,191q-30.56,0-47,17.68t-16.48,48q0,23.82,9.63,42a73.26,73.26,0,0,0,26.22,28.51q16.59,10.32,37.77,10.34,11.55,0,18.52-2.16A16.62,16.62,0,0,0,850.65,327q3.24-6.25,3.25-18.53,0-11.55-1.57-17a10,10,0,0,0-7.22-7.1q-5.65-1.68-18.4-1.68-1.44,0-1.44-1.92c0-1.29.39-1.93,1.2-1.93q15.15,1,27.67,1.08t26.22-.6c.8,0,1.2.57,1.2,1.69s-.4,1.68-1.2,1.68q-5.54-.24-8.06,1.56c-1.68,1.21-2.77,3.82-3.25,7.82a178.14,178.14,0,0,0-.72,18.77,105.55,105.55,0,0,0,.48,11.79c.32,2.56.6,4.45.84,5.65A18,18,0,0,1,870,332a2.8,2.8,0,0,1-.48,1.92,5.35,5.35,0,0,1-2.16,1q-12.27,2.88-25.62,4.81A180.48,180.48,0,0,1,816.09,341.58Z"/><path class="cls-1" d="M919.06,312.47l2.4-118.6,5.78.48-2.41,118.12Q924.59,325,929,330.39t16.24,5.42q.48,0,.48,1.44t-.48,1.44c-3.53,0-7.18-.07-10.94-.24s-7.91-.24-12.39-.24c-4.18,0-8.1.09-11.79.24s-7.14.24-10.35.24q-.48,0-.48-1.44t.48-1.44q10.11,0,14.56-5.42T919.06,312.47Zm166.72,23.34q.72,0,.72,1.44t-.72,1.44c-3.85,0-8.22-.07-13.11-.24s-10-.24-15.28-.24-9.9.09-14.31.24-8.39.24-11.91.24q-.48,0-.48-1.44t.48-1.44q12,0,15.4-3.13t2.88-13.47L1044.88,203l7.94-11.07L990.27,337c-.16.66-.8,1-1.92,1s-1.85-.32-2.17-1L925.79,208.3q-8.16-17.07-24.29-17.08c-.33,0-.48-.48-.48-1.44s.15-1.45.48-1.45c2.56,0,5.33.09,8.3.24s5.41.24,7.33.24c2.57,0,4.94-.07,7.1-.24s3.81-.24,4.93-.24a6.72,6.72,0,0,1,5.3,2.17q1.92,2.16,5.77,10.34l54.85,115.48-7.46,12.51,58.7-134.48a11.18,11.18,0,0,1,3.13-4.45,6.38,6.38,0,0,1,4.09-1.57c1,0,2.25.09,3.85.24a55.75,55.75,0,0,0,5.78.24c4.33,0,7.85-.07,10.58-.24s5.61-.24,8.66-.24c.32,0,.48.48.48,1.45s-.16,1.44-.48,1.44q-11.55,0-17.08,3.37t-5,13.23l4.81,111.39q.24,7,1.68,10.58a8.15,8.15,0,0,0,5.9,4.81Q1077.11,335.82,1085.78,335.81Z"/><path class="cls-1" d="M1259.47,335.81c.64,0,1,.48,1,1.44s-.33,1.44-1,1.44c-4.65,0-9.38-.15-14.19-.48s-9.47-.48-14-.48q-7.47,0-13,.48c-3.69.33-7.78.48-12.26.48-.65,0-1-.48-1-1.44s.32-1.44,1-1.44q12.75,0,15.87-3.73T1220.21,318L1166.8,205.17l6-7.45-46.68,110.42q-6,14.69-.72,21.17t20.93,6.5c.8,0,1.21.48,1.21,1.44s-.41,1.44-1.21,1.44c-4.81,0-9.22-.15-13.23-.48s-9.06-.48-15.16-.48q-8.64,0-13.83.48c-3.45.33-7.66.48-12.63.48-.66,0-1-.48-1-1.44s.34-1.44,1-1.44a24.08,24.08,0,0,0,11.31-2.53q4.8-2.52,9-8.9a117.36,117.36,0,0,0,9.26-18.4l50.85-119.81a1.88,1.88,0,0,1,1.69-.72q1.2,0,1.44.72l56.78,119.57a156.27,156.27,0,0,0,9.86,18.4q4.33,6.62,8.54,9.14A17.68,17.68,0,0,0,1259.47,335.81Zm-116.92-76.72,3.61-5h49.56l1.69,5Z"/></g></svg>